Coordinates
version=1
nRows=6
nColumns=38
inDegrees=yes

Units are S.I. units (second, meters, Newtons, ...)
Angles are in degrees.

endheader
time	pelvis_tilt	pelvis_list	pelvis_rotation	pelvis_tx	pelvis_ty	pelvis_tz	hip_flexion_r	hip_adduction_r	hip_rotation_r	knee_angle_r	ankle_angle_r	subtalar_angle_r	mtp_angle_r	hip_flexion_l	hip_adduction_l	hip_rotation_l	knee_angle_l	ankle_angle_l	subtalar_angle_l	mtp_angle_l	lumbar_extension	lumbar_bending	lumbar_rotation	arm_flex_r	arm_add_r	arm_rot_r	elbow_flex_r	pro_sup_r	wrist_flex_r	wrist_dev_r	arm_flex_l	arm_add_l	arm_rot_l	elbow_flex_l	pro_sup_l	wrist_flex_l	wrist_dev_l
      5.17000000	     -7.09785872	      0.97567821	      0.03700133	     -0.10245777	      0.87628353	      2.59524392	     24.52625009	      1.14928815	     -2.23866688	    -16.40766760	      0.77324247	      0.00000000	      0.00000000	     -2.52628496	     -1.60806196	      1.96802926	    -54.45973166	    -29.55595614	      0.00000000	      0.00000000	      2.00966467	     -0.91517731	     -5.92176937	    -24.52801261	    -24.72374716	      7.82247532	    124.00647735	     78.74507592	      0.00000000	      0.00000000	     -1.65967908	    -17.75261378	     16.84490245	    124.23139159	     97.62586990	      0.00000000	      0.00000000
      5.18000000	     -6.51672387	      0.35296714	     -0.35084900	     -0.10501521	      0.86713145	      2.59760716	     24.91343053	      2.27204714	     -1.41903615	    -20.57598560	      2.06949825	      0.00000000	      0.00000000	     -0.99939299	     -2.55847502	      1.60752314	    -59.35219349	    -27.83841159	      0.00000000	      0.00000000	      1.03799832	     -0.16436068	     -5.22760775	    -21.66598343	    -24.83084043	      8.94081870	    122.90725563	     78.97776798	      0.00000000	      0.00000000	     -2.04492318	    -17.68886586	     16.84285262	    124.34705435	     97.39578886	      0.00000000	      0.00000000
      5.19000000	     -5.76147328	     -0.51127374	     -0.80104190	     -0.10837616	      0.85795118	      2.60036040	     25.52829121	      3.76266472	     -0.60635657	    -25.68226482	      4.33759069	      0.00000000	      0.00000000	      0.52298592	     -3.83013934	      1.24568456	    -64.30825883	    -25.84794323	      0.00000000	      0.00000000	     -0.28427577	      0.78700092	     -4.43574717	    -18.47128912	    -24.88703090	     10.22562263	    121.56734606	     79.15725625	      0.00000000	      0.00000000	     -2.38024538	    -17.59451646	     16.69511078	    124.32988852	     97.09643716	      0.00000000	      0.00000000
      5.20000000	     -4.91618307	     -1.54747373	     -1.29604279	     -0.11215768	      0.84843614	      2.60337568	     26.19340195	      5.53801023	      0.21888293	    -31.13605946	      7.39162129	      0.00000000	      0.00000000	      2.11302078	     -5.33683456	      0.89991545	    -69.23303132	    -23.62901475	      0.00000000	      0.00000000	     -1.77142501	      1.88467771	     -3.50758672	    -14.97860713	    -24.88952927	     11.67046368	    119.92889892	     79.33513707	      0.00000000	      0.00000000	     -2.71597031	    -17.42291884	     16.41207959	    124.09921869	     96.80688949	      0.00000000	      0.00000000
      5.21000000	     -4.19170223	     -2.64587446	     -1.84786915	     -0.11607779	      0.83889018	      2.60621106	     26.69678616	      7.44476442	      1.02242129	    -36.15411907	     10.80023505	      0.00000000	      0.00000000	      3.91993572	     -6.93082159	      0.58734720	    -73.94782783	    -21.27729322	      0.00000000	      0.00000000	     -3.16181539	      3.07041660	     -2.40837827	    -11.28747866	    -24.84888433	     13.25138321	    117.94567589	     79.56670263	      0.00000000	      0.00000000	     -3.14819303	    -17.12948051	     16.05320194	    123.58186230	     96.62664746	      0.00000000	      0.00000000
      5.22000000	     -3.81313293	     -3.71025885	     -2.48520763	     -0.11999577	      0.83047066	      2.60834286	     26.87447292	      9.25288465	      1.71741274	    -40.03005781	     14.07862914	      0.00000000	      0.00000000	      6.10022835	     -8.42325665	      0.34233247	    -78.22378642	    -18.90268794	      0.00000000	      0.00000000	     -4.23417897	      4.27223724	     -1.13695151	     -7.54873706	    -24.77712254	     14.93251295	    115.62840875	     79.90428122	      0.00000000	      0.00000000	     -3.76636417	    -16.69917409	     15.71093519	    122.73692112	     96.64509438	      0.00000000	      0.00000000
